<svg xmlns="http://www.w3.org/2000/svg" viewBox="0 0 1440 620" preserveAspectRatio="xMidYMid slice" role="img" aria-label="Silueta Mosta slobode u Novom Sadu">
  <defs>
    <linearGradient id="nebo" x1="0" y1="0" x2="0" y2="1">
      <stop offset="0" stop-color="#04101F"/>
      <stop offset="0.62" stop-color="#061A30"/>
      <stop offset="1" stop-color="#0A2540"/>
    </linearGradient>
    <linearGradient id="reka" x1="0" y1="0" x2="0" y2="1">
      <stop offset="0" stop-color="#0F3358"/>
      <stop offset="1" stop-color="#04101F"/>
    </linearGradient>
    <linearGradient id="pojas" x1="0" y1="0" x2="1" y2="0">
      <stop offset="0" stop-color="#8A6A22"/>
      <stop offset="0.5" stop-color="#C9A24B"/>
      <stop offset="1" stop-color="#8A6A22"/>
    </linearGradient>
  </defs>
  <rect width="1440" height="620" fill="url(#nebo)"/>
  <circle cx="1150" cy="130" r="58" fill="#C9A24B" opacity="0.9"/>
  <circle cx="1150" cy="130" r="86" fill="#C9A24B" opacity="0.14"/>
  <g stroke="#154572" stroke-width="2" opacity="0.5" fill="none">
    <path d="M40 300 h180 v-120 h150 v120"/>
    <path d="M220 180 l-30 -34 M370 180 l30 -34"/>
    <rect x="60" y="250" width="26" height="26"/>
    <rect x="110" y="250" width="26" height="26"/>
    <rect x="160" y="250" width="26" height="26"/>
    <path d="M1180 320 h190 v-100 h140 v100"/>
    <path d="M1370 220 l-28 -32 M1320 220 l-28 -32"/>
  </g>
  <g fill="#B08D3F" opacity="0.85">
    <circle cx="70" cy="243" r="3"/><circle cx="123" cy="243" r="3"/><circle cx="173" cy="243" r="3"/>
  </g>
  <path d="M-10 420 C 240 330, 480 330, 720 400 C 960 470, 1200 470, 1450 380 L1450 430 C 1200 520, 960 520, 720 450 C 480 380, 240 380, -10 470 Z" fill="#0A2540"/>
  <path d="M-10 420 C 240 330, 480 330, 720 400 C 960 470, 1200 470, 1450 380" stroke="url(#pojas)" stroke-width="7" fill="none"/>
  <g stroke="#061A30" stroke-width="5">
    <line x1="180" y1="362" x2="180" y2="452"/>
    <line x1="360" y1="340" x2="360" y2="438"/>
    <line x1="540" y1="352" x2="540" y2="442"/>
    <line x1="900" y1="428" x2="900" y2="502"/>
    <line x1="1080" y1="452" x2="1080" y2="518"/>
    <line x1="1260" y1="448" x2="1260" y2="512"/>
  </g>
  <rect y="470" width="1440" height="150" fill="url(#reka)"/>
  <g stroke="#1D5A94" stroke-width="2.5" opacity="0.35" fill="none">
    <path d="M80 512 q30 -12 60 0 t60 0 t60 0"/>
    <path d="M420 548 q30 -12 60 0 t60 0 t60 0"/>
    <path d="M980 522 q30 -12 60 0 t60 0 t60 0"/>
    <path d="M700 590 q30 -12 60 0 t60 0 t60 0"/>
  </g>
</svg>
